<svg width="109" height="35" viewBox="0 0 109 35" fill="none" xmlns="http://www.w3.org/2000/svg">
<path d="M101.846 25.9199C101.846 25.2461 102.07 24.6992 102.52 24.2793C102.979 23.8594 103.55 23.6494 104.233 23.6494C104.927 23.6494 105.498 23.8594 105.947 24.2793C106.406 24.6992 106.636 25.2461 106.636 25.9199C106.636 26.584 106.411 27.126 105.962 27.5459C105.513 27.9561 104.937 28.1611 104.233 28.1611C103.54 28.1611 102.969 27.9561 102.52 27.5459C102.07 27.126 101.846 26.584 101.846 25.9199Z" fill="#D53F8C"/>
<path d="M0.966797 19.958C0.966797 17.4873 1.51855 15.5195 2.62207 14.0547C3.73535 12.5898 5.25391 11.8574 7.17773 11.8574C8.7207 11.8574 9.99512 12.4336 11.001 13.5859V5.5H15.249V28H11.4258L11.2207 26.3154C10.166 27.6338 8.80859 28.293 7.14844 28.293C5.2832 28.293 3.78418 27.5605 2.65137 26.0957C1.52832 24.6211 0.966797 22.5752 0.966797 19.958ZM5.2002 20.2656C5.2002 21.75 5.45898 22.8877 5.97656 23.6787C6.49414 24.4697 7.24609 24.8652 8.23242 24.8652C9.54102 24.8652 10.4639 24.3135 11.001 23.21V16.9551C10.4736 15.8516 9.56055 15.2998 8.26172 15.2998C6.2207 15.2998 5.2002 16.9551 5.2002 20.2656ZM26.9648 28C26.7695 27.6191 26.6279 27.1455 26.54 26.5791C25.5146 27.7217 24.1816 28.293 22.541 28.293C20.9883 28.293 19.6992 27.8438 18.6738 26.9453C17.6582 26.0469 17.1504 24.9141 17.1504 23.5469C17.1504 21.8672 17.7705 20.5781 19.0107 19.6797C20.2607 18.7812 22.0625 18.3271 24.416 18.3174H26.3643V17.4092C26.3643 16.6768 26.1738 16.0908 25.793 15.6514C25.4219 15.2119 24.8311 14.9922 24.0205 14.9922C23.3076 14.9922 22.7461 15.1631 22.3359 15.5049C21.9355 15.8467 21.7354 16.3154 21.7354 16.9111H17.502C17.502 15.9932 17.7852 15.1436 18.3516 14.3623C18.918 13.5811 19.7188 12.9707 20.7539 12.5312C21.7891 12.082 22.9512 11.8574 24.2402 11.8574C26.1934 11.8574 27.7412 12.3506 28.8838 13.3369C30.0361 14.3135 30.6123 15.6904 30.6123 17.4678V24.3379C30.6221 25.8418 30.832 26.9795 31.2422 27.751V28H26.9648ZM23.4639 25.0557C24.0889 25.0557 24.665 24.9189 25.1924 24.6455C25.7197 24.3623 26.1104 23.9863 26.3643 23.5176V20.793H24.7822C22.6631 20.793 21.5352 21.5254 21.3984 22.9902L21.3838 23.2393C21.3838 23.7666 21.5693 24.2012 21.9404 24.543C22.3115 24.8848 22.8193 25.0557 23.4639 25.0557ZM41.6982 23.6201C41.6982 23.1025 41.4395 22.6973 40.9219 22.4043C40.4141 22.1016 39.5938 21.833 38.4609 21.5986C34.6914 20.8076 32.8066 19.2061 32.8066 16.7939C32.8066 15.3877 33.3877 14.2158 34.5498 13.2783C35.7217 12.3311 37.25 11.8574 39.1348 11.8574C41.1465 11.8574 42.7529 12.3311 43.9541 13.2783C45.165 14.2256 45.7705 15.4561 45.7705 16.9697H41.5371C41.5371 16.3643 41.3418 15.8662 40.9512 15.4756C40.5605 15.0752 39.9502 14.875 39.1201 14.875C38.4072 14.875 37.8555 15.0361 37.4648 15.3584C37.0742 15.6807 36.8789 16.0908 36.8789 16.5889C36.8789 17.0576 37.0986 17.4385 37.5381 17.7314C37.9873 18.0146 38.7393 18.2637 39.7939 18.4785C40.8486 18.6836 41.7373 18.918 42.46 19.1816C44.6963 20.002 45.8145 21.4229 45.8145 23.4443C45.8145 24.8896 45.1943 26.0615 43.9541 26.96C42.7139 27.8486 41.1123 28.293 39.1494 28.293C37.8213 28.293 36.6396 28.0586 35.6045 27.5898C34.5791 27.1113 33.7734 26.4619 33.1875 25.6416C32.6016 24.8115 32.3086 23.918 32.3086 22.9609H36.3223C36.3613 23.7129 36.6396 24.2891 37.1572 24.6895C37.6748 25.0898 38.3682 25.29 39.2373 25.29C40.0479 25.29 40.6582 25.1387 41.0684 24.8359C41.4883 24.5234 41.6982 24.1182 41.6982 23.6201ZM51.9346 13.8789C53.0576 12.5312 54.4688 11.8574 56.168 11.8574C59.6055 11.8574 61.3486 13.8545 61.3975 17.8486V28H57.1641V17.9658C57.1641 17.0576 56.9688 16.3887 56.5781 15.959C56.1875 15.5195 55.5381 15.2998 54.6299 15.2998C53.3896 15.2998 52.4912 15.7783 51.9346 16.7354V28H47.7012V5.5H51.9346V13.8789ZM63.2256 19.958C63.2256 17.5264 63.8018 15.5684 64.9541 14.084C66.1162 12.5996 67.6787 11.8574 69.6416 11.8574C71.3799 11.8574 72.7324 12.4531 73.6992 13.6445L73.875 12.1504H77.7129V27.4727C77.7129 28.8594 77.3955 30.0654 76.7607 31.0908C76.1357 32.1162 75.252 32.8975 74.1094 33.4346C72.9668 33.9717 71.6289 34.2402 70.0957 34.2402C68.9336 34.2402 67.8008 34.0059 66.6973 33.5371C65.5938 33.0781 64.7588 32.4824 64.1924 31.75L66.0674 29.1719C67.1221 30.3535 68.4014 30.9443 69.9053 30.9443C71.0283 30.9443 71.9023 30.6416 72.5273 30.0361C73.1523 29.4404 73.4648 28.5908 73.4648 27.4873V26.6377C72.4883 27.7412 71.2041 28.293 69.6123 28.293C67.708 28.293 66.165 27.5508 64.9834 26.0664C63.8115 24.5723 63.2256 22.5947 63.2256 20.1338V19.958ZM67.459 20.2656C67.459 21.7012 67.7471 22.8291 68.3232 23.6494C68.8994 24.46 69.6904 24.8652 70.6963 24.8652C71.9854 24.8652 72.9082 24.3818 73.4648 23.415V16.75C72.8984 15.7832 71.9854 15.2998 70.7256 15.2998C69.71 15.2998 68.9092 15.7148 68.3232 16.5449C67.7471 17.375 67.459 18.6152 67.459 20.2656ZM79.5703 19.9287C79.5703 18.3564 79.873 16.9551 80.4785 15.7246C81.084 14.4941 81.9531 13.542 83.0859 12.8682C84.2285 12.1943 85.5518 11.8574 87.0557 11.8574C89.1943 11.8574 90.9375 12.5117 92.2852 13.8203C93.6426 15.1289 94.3994 16.9062 94.5557 19.1523L94.585 20.2363C94.585 22.668 93.9062 24.6211 92.5488 26.0957C91.1914 27.5605 89.3701 28.293 87.085 28.293C84.7998 28.293 82.9736 27.5605 81.6064 26.0957C80.249 24.6309 79.5703 22.6387 79.5703 20.1191V19.9287ZM83.8037 20.2363C83.8037 21.7402 84.0869 22.8926 84.6533 23.6934C85.2197 24.4844 86.0303 24.8799 87.085 24.8799C88.1104 24.8799 88.9111 24.4893 89.4873 23.708C90.0635 22.917 90.3516 21.6572 90.3516 19.9287C90.3516 18.4541 90.0635 17.3115 89.4873 16.501C88.9111 15.6904 88.1006 15.2852 87.0557 15.2852C86.0205 15.2852 85.2197 15.6904 84.6533 16.501C84.0869 17.3018 83.8037 18.5469 83.8037 20.2363Z" fill="#F7FAFC"/>
</svg>
